<mxfile host="app.diagrams.net" modified="2023-02-19T23:53:44.056Z" agent="5.0 (Windows NT 10.0; Win64; x64) AppleWebKit/537.36 (KHTML, like Gecko) Chrome/110.0.0.0 Safari/537.36" etag="bN4180mRFvs89rXFouQ3" version="20.8.20" type="github">
  <diagram name="Overview-Usage" id="ms9M2wGPWEZDKiY62oMH">
    <mxGraphModel dx="2074" dy="1124" grid="1" gridSize="10" guides="1" tooltips="1" connect="1" arrows="1" fold="1" page="1" pageScale="1" pageWidth="850" pageHeight="1100" math="0" shadow="0">
      <root>
        <mxCell id="0" />
        <mxCell id="1" parent="0" />
        <mxCell id="mm6JZgyzwv_FnodIefHB-1" value="index.html" style="swimlane;whiteSpace=wrap;html=1;" vertex="1" parent="1">
          <mxGeometry x="555" y="80" width="260" height="200" as="geometry" />
        </mxCell>
        <mxCell id="mm6JZgyzwv_FnodIefHB-2" value="Contains General Info on the auction&lt;br&gt;" style="text;html=1;align=center;verticalAlign=middle;resizable=0;points=[];autosize=1;strokeColor=none;fillColor=none;" vertex="1" parent="mm6JZgyzwv_FnodIefHB-1">
          <mxGeometry x="20" y="30" width="220" height="30" as="geometry" />
        </mxCell>
        <mxCell id="mm6JZgyzwv_FnodIefHB-4" value="Link to Login" style="text;html=1;align=center;verticalAlign=middle;resizable=0;points=[];autosize=1;strokeColor=none;fillColor=none;" vertex="1" parent="mm6JZgyzwv_FnodIefHB-1">
          <mxGeometry x="80" y="70" width="90" height="30" as="geometry" />
        </mxCell>
        <mxCell id="mm6JZgyzwv_FnodIefHB-6" value="/login" style="swimlane;whiteSpace=wrap;html=1;" vertex="1" parent="1">
          <mxGeometry x="580" y="310" width="210" height="200" as="geometry" />
        </mxCell>
        <mxCell id="mm6JZgyzwv_FnodIefHB-11" value="Login Page&lt;br style=&quot;border-color: var(--darkreader-border--border-color); --darkreader-inline-border:var(--darkreader-border--darkreader-border--border-color);&quot; data-darkreader-inline-border=&quot;&quot;&gt;Authorizes Users using Hashed Password" style="rounded=0;whiteSpace=wrap;html=1;" vertex="1" parent="mm6JZgyzwv_FnodIefHB-6">
          <mxGeometry x="45" y="70" width="120" height="60" as="geometry" />
        </mxCell>
        <mxCell id="mm6JZgyzwv_FnodIefHB-7" value="/dashboard" style="swimlane;whiteSpace=wrap;html=1;" vertex="1" parent="1">
          <mxGeometry x="250" y="310" width="295" height="200" as="geometry" />
        </mxCell>
        <mxCell id="mm6JZgyzwv_FnodIefHB-12" value="Otherwise Shows a User Dashboard with overview of offered or purchased items.&lt;br&gt;&lt;br&gt;If user is an admin it will have a link to the admin dashboard" style="whiteSpace=wrap;html=1;rounded=0;" vertex="1" parent="mm6JZgyzwv_FnodIefHB-7">
          <mxGeometry x="7.5" y="40" width="280" height="70" as="geometry" />
        </mxCell>
        <mxCell id="mm6JZgyzwv_FnodIefHB-22" value="Have a Logout Link" style="whiteSpace=wrap;html=1;" vertex="1" parent="mm6JZgyzwv_FnodIefHB-7">
          <mxGeometry x="87.5" y="120" width="120" height="60" as="geometry" />
        </mxCell>
        <mxCell id="mm6JZgyzwv_FnodIefHB-14" value="/add-item" style="swimlane;whiteSpace=wrap;html=1;" vertex="1" parent="1">
          <mxGeometry x="247.5" y="550" width="300" height="200" as="geometry" />
        </mxCell>
        <mxCell id="mm6JZgyzwv_FnodIefHB-15" value="Allows User to add an item that they are going to sell" style="whiteSpace=wrap;html=1;" vertex="1" parent="mm6JZgyzwv_FnodIefHB-14">
          <mxGeometry x="28.130000000000003" y="40" width="238.75" height="60" as="geometry" />
        </mxCell>
        <mxCell id="mm6JZgyzwv_FnodIefHB-16" value="/admin-dashboard" style="swimlane;whiteSpace=wrap;html=1;" vertex="1" parent="1">
          <mxGeometry x="10" y="310" width="210" height="200" as="geometry" />
        </mxCell>
        <mxCell id="mm6JZgyzwv_FnodIefHB-17" value="Manage Approval Requests for new items" style="whiteSpace=wrap;html=1;" vertex="1" parent="mm6JZgyzwv_FnodIefHB-16">
          <mxGeometry x="20" y="30" width="170" height="60" as="geometry" />
        </mxCell>
        <mxCell id="mm6JZgyzwv_FnodIefHB-18" value="Manage Users" style="whiteSpace=wrap;html=1;" vertex="1" parent="mm6JZgyzwv_FnodIefHB-16">
          <mxGeometry x="45" y="100" width="120" height="30" as="geometry" />
        </mxCell>
        <mxCell id="mm6JZgyzwv_FnodIefHB-23" value="Have a Logout Link" style="whiteSpace=wrap;html=1;" vertex="1" parent="mm6JZgyzwv_FnodIefHB-16">
          <mxGeometry x="45" y="140" width="120" height="40" as="geometry" />
        </mxCell>
        <mxCell id="mm6JZgyzwv_FnodIefHB-19" value="" style="endArrow=classic;startArrow=classic;html=1;rounded=0;entryX=0;entryY=0.5;entryDx=0;entryDy=0;exitX=1;exitY=0.5;exitDx=0;exitDy=0;" edge="1" parent="1" source="mm6JZgyzwv_FnodIefHB-16" target="mm6JZgyzwv_FnodIefHB-7">
          <mxGeometry width="50" height="50" relative="1" as="geometry">
            <mxPoint x="120" y="590" as="sourcePoint" />
            <mxPoint x="170" y="540" as="targetPoint" />
          </mxGeometry>
        </mxCell>
        <mxCell id="mm6JZgyzwv_FnodIefHB-20" value="" style="endArrow=classic;startArrow=classic;html=1;rounded=0;entryX=0.5;entryY=1;entryDx=0;entryDy=0;exitX=0.5;exitY=0;exitDx=0;exitDy=0;" edge="1" parent="1" source="mm6JZgyzwv_FnodIefHB-14" target="mm6JZgyzwv_FnodIefHB-7">
          <mxGeometry width="50" height="50" relative="1" as="geometry">
            <mxPoint x="640" y="675" as="sourcePoint" />
            <mxPoint x="690" y="625" as="targetPoint" />
          </mxGeometry>
        </mxCell>
        <mxCell id="mm6JZgyzwv_FnodIefHB-21" value="" style="endArrow=classic;html=1;rounded=0;exitX=0;exitY=0.5;exitDx=0;exitDy=0;entryX=1;entryY=0.5;entryDx=0;entryDy=0;" edge="1" parent="1" source="mm6JZgyzwv_FnodIefHB-6" target="mm6JZgyzwv_FnodIefHB-7">
          <mxGeometry width="50" height="50" relative="1" as="geometry">
            <mxPoint x="400" y="500" as="sourcePoint" />
            <mxPoint x="450" y="450" as="targetPoint" />
          </mxGeometry>
        </mxCell>
        <mxCell id="mm6JZgyzwv_FnodIefHB-25" value="/logout" style="swimlane;whiteSpace=wrap;html=1;" vertex="1" parent="1">
          <mxGeometry x="100" y="80" width="280" height="200" as="geometry" />
        </mxCell>
        <mxCell id="mm6JZgyzwv_FnodIefHB-28" value="Lets the User know they are logged out&amp;nbsp; and gives them a link to the main page" style="whiteSpace=wrap;html=1;" vertex="1" parent="mm6JZgyzwv_FnodIefHB-25">
          <mxGeometry x="25" y="70" width="230" height="60" as="geometry" />
        </mxCell>
        <mxCell id="mm6JZgyzwv_FnodIefHB-26" value="" style="endArrow=classic;html=1;rounded=0;exitX=0.75;exitY=0;exitDx=0;exitDy=0;" edge="1" parent="1" source="mm6JZgyzwv_FnodIefHB-16">
          <mxGeometry width="50" height="50" relative="1" as="geometry">
            <mxPoint x="400" y="500" as="sourcePoint" />
            <mxPoint x="168" y="280" as="targetPoint" />
          </mxGeometry>
        </mxCell>
        <mxCell id="mm6JZgyzwv_FnodIefHB-27" value="" style="endArrow=classic;html=1;rounded=0;" edge="1" parent="1">
          <mxGeometry width="50" height="50" relative="1" as="geometry">
            <mxPoint x="299" y="310" as="sourcePoint" />
            <mxPoint x="299" y="280" as="targetPoint" />
          </mxGeometry>
        </mxCell>
        <mxCell id="mm6JZgyzwv_FnodIefHB-29" value="" style="endArrow=classic;html=1;rounded=0;exitX=1;exitY=0.5;exitDx=0;exitDy=0;entryX=0;entryY=0.5;entryDx=0;entryDy=0;" edge="1" parent="1" source="mm6JZgyzwv_FnodIefHB-25" target="mm6JZgyzwv_FnodIefHB-1">
          <mxGeometry width="50" height="50" relative="1" as="geometry">
            <mxPoint x="400" y="480" as="sourcePoint" />
            <mxPoint x="450" y="430" as="targetPoint" />
          </mxGeometry>
        </mxCell>
        <mxCell id="mm6JZgyzwv_FnodIefHB-30" value="" style="endArrow=classic;html=1;rounded=0;exitX=0.5;exitY=1;exitDx=0;exitDy=0;entryX=0.5;entryY=0;entryDx=0;entryDy=0;" edge="1" parent="1" source="mm6JZgyzwv_FnodIefHB-1" target="mm6JZgyzwv_FnodIefHB-6">
          <mxGeometry width="50" height="50" relative="1" as="geometry">
            <mxPoint x="400" y="480" as="sourcePoint" />
            <mxPoint x="450" y="430" as="targetPoint" />
          </mxGeometry>
        </mxCell>
      </root>
    </mxGraphModel>
  </diagram>
</mxfile>
